#Comment line ignore any data following # character 
#Hierarchical Translation and Rotation (.htr) file 
[Header]	
#Header keywords are followed by a single value 
FileType HTR		#Single word string
DataType HTRS		#Translation followed by rotation and scale data
FileVersion 1		#integer
NumSegments 84		#integer
NumFrames 2		#integer
DataFrameRate 30		#integer, data frame rate in this file
EulerRotationOrder ZYX
CalibrationUnits mm
RotationUnits Degrees
GlobalAxisofGravity Y
BoneLengthAxis Y
ScaleFactor 1.00
[SegmentNames&Hierarchy]
#CHILD	PARENT
MASTER GLOBAL
root MASTER
chest root
L_mid_tent01 root
R_mid_tent01 root
spine01 root
Bip01_Neck chest
L_humerus chest
R_humerus chest
weapon_bone chest
Bip01_Head Bip01_Neck
eye_left_bone Bip01_Head
eye_right_bone Bip01_Head
L_forearm L_humerus
L_front_hand L_forearm
L_weapon_bone L_forearm
L_front_hand01_01 L_front_hand
L_front_hand02_01 L_front_hand
L_front_hand03_01 L_front_hand
L_front_hand01_02 L_front_hand01_01
L_front_hand02_02 L_front_hand02_01
L_front_hand03_02 L_front_hand03_01
R_forearm R_humerus
R_front_hand R_forearm
R_weapon_bone R_forearm
R_front_hand01_01 R_front_hand
R_front_hand02_01 R_front_hand
R_front_hand03_01 R_front_hand
R_front_hand01_02 R_front_hand01_01
R_front_hand02_02 R_front_hand02_01
R_front_hand03_02 R_front_hand03_01
null_rope01_connect L_mid_tent01
Rope1_Seg01 null_rope01_connect
Rope1_Seg02 Rope1_Seg01
Rope1_Seg03 Rope1_Seg02
Rope1_Seg04 Rope1_Seg03
Rope1_Seg05 Rope1_Seg04
Rope1_Seg06 Rope1_Seg05
Rope1_Seg07 Rope1_Seg06
Rope1_Seg09 Rope1_Seg07
L_mid_hand01 Rope1_Seg09
L_mid_hand02 Rope1_Seg09
L_mid_hand03 Rope1_Seg09
null_rope02_connect R_mid_tent01
Rope2_Seg01 null_rope02_connect
Rope2_Seg02 Rope2_Seg01
Rope2_Seg03 Rope2_Seg02
Rope2_Seg04 Rope2_Seg03
Rope2_Seg05 Rope2_Seg04
Rope2_Seg06 Rope2_Seg05
Rope2_Seg07 Rope2_Seg06
Rope2_Seg09 Rope2_Seg07
R_mid_hand01 Rope2_Seg09
R_mid_hand02 Rope2_Seg09
R_mid_hand03 Rope2_Seg09
spine02 spine01
spine03 spine02
pelvis spine03
null_rope03_connect pelvis
null_rope04_connect pelvis
Rope3_Seg01 null_rope03_connect
Rope3_Seg02 Rope3_Seg01
Rope3_Seg03 Rope3_Seg02
Rope3_Seg04 Rope3_Seg03
Rope3_Seg05 Rope3_Seg04
Rope3_Seg06 Rope3_Seg05
Rope3_Seg07 Rope3_Seg06
Rope3_Seg08 Rope3_Seg07
Rope3_Seg09 Rope3_Seg08
R_rear_hand01 Rope3_Seg09
R_rear_hand02 Rope3_Seg09
R_rear_hand03 Rope3_Seg09
Rope4_Seg01 null_rope04_connect
Rope4_Seg02 Rope4_Seg01
Rope4_Seg03 Rope4_Seg02
Rope4_Seg04 Rope4_Seg03
Rope4_Seg05 Rope4_Seg04
Rope4_Seg06 Rope4_Seg05
Rope4_Seg07 Rope4_Seg06
Rope4_Seg08 Rope4_Seg07
Rope4_Seg09 Rope4_Seg08
L_rear_hand01 Rope4_Seg09
L_rear_hand02 Rope4_Seg09
L_rear_hand03 Rope4_Seg09
[BasePosition]
#SegmentName Tx, Ty, Tz, Rx, Ry, Rz, BoneLength
MASTER 0.000000 0.000000 0.000000 -90.000000 0.000000 0.000000 10.000000 
root 0.000000 0.000000 0.000000 0.000000 0.000000 0.000000 10.000000 
chest 0.000000 0.000000 0.000000 0.000000 0.000000 0.000000 10.000000 
L_mid_tent01 0.000000 0.000000 0.000000 0.000000 0.000000 0.000000 10.000000 
R_mid_tent01 0.000000 0.000000 0.000000 0.000000 0.000000 0.000000 10.000000 
spine01 0.000000 0.000000 0.000000 0.000000 0.000000 0.000000 10.000000 
Bip01_Neck 0.000000 0.000000 0.000000 0.000000 0.000000 0.000000 10.000000 
L_humerus 0.000000 0.000000 0.000000 0.000000 0.000000 0.000000 10.000000 
R_humerus 0.000000 0.000000 0.000000 0.000000 0.000000 0.000000 10.000000 
weapon_bone 0.000000 0.000000 0.000000 0.000000 0.000000 0.000000 10.000000 
Bip01_Head 0.000000 0.000000 0.000000 0.000000 0.000000 0.000000 10.000000 
eye_left_bone 0.000000 0.000000 0.000000 0.000000 0.000000 0.000000 10.000000 
eye_right_bone 0.000000 0.000000 0.000000 0.000000 0.000000 0.000000 10.000000 
L_forearm 0.000000 0.000000 0.000000 0.000000 0.000000 0.000000 10.000000 
L_front_hand 0.000000 0.000000 0.000000 0.000000 0.000000 0.000000 10.000000 
L_weapon_bone 0.000000 0.000000 0.000000 0.000000 0.000000 0.000000 10.000000 
L_front_hand01_01 0.000000 0.000000 0.000000 0.000000 0.000000 0.000000 10.000000 
L_front_hand02_01 0.000000 0.000000 0.000000 0.000000 0.000000 0.000000 10.000000 
L_front_hand03_01 0.000000 0.000000 0.000000 0.000000 0.000000 0.000000 10.000000 
L_front_hand01_02 0.000000 0.000000 0.000000 0.000000 0.000000 0.000000 10.000000 
L_front_hand02_02 0.000000 0.000000 0.000000 0.000000 0.000000 0.000000 10.000000 
L_front_hand03_02 0.000000 0.000000 0.000000 0.000000 0.000000 0.000000 10.000000 
R_forearm 0.000000 0.000000 0.000000 0.000000 0.000000 0.000000 10.000000 
R_front_hand 0.000000 0.000000 0.000000 0.000000 0.000000 0.000000 10.000000 
R_weapon_bone 0.000000 0.000000 0.000000 0.000000 0.000000 0.000000 10.000000 
R_front_hand01_01 0.000000 0.000000 0.000000 0.000000 0.000000 0.000000 10.000000 
R_front_hand02_01 0.000000 0.000000 0.000000 0.000000 0.000000 0.000000 10.000000 
R_front_hand03_01 0.000000 0.000000 0.000000 0.000000 0.000000 0.000000 10.000000 
R_front_hand01_02 0.000000 0.000000 0.000000 0.000000 0.000000 0.000000 10.000000 
R_front_hand02_02 0.000000 0.000000 0.000000 0.000000 0.000000 0.000000 10.000000 
R_front_hand03_02 0.000000 0.000000 0.000000 0.000000 0.000000 0.000000 10.000000 
null_rope01_connect 0.000000 0.000000 0.000000 0.000000 0.000000 0.000000 10.000000 
Rope1_Seg01 0.000000 0.000000 0.000000 0.000000 0.000000 0.000000 10.000000 
Rope1_Seg02 0.000000 0.000000 0.000000 0.000000 0.000000 0.000000 10.000000 
Rope1_Seg03 0.000000 0.000000 0.000000 0.000000 0.000000 0.000000 10.000000 
Rope1_Seg04 0.000000 0.000000 0.000000 0.000000 0.000000 0.000000 10.000000 
Rope1_Seg05 0.000000 0.000000 0.000000 0.000000 0.000000 0.000000 10.000000 
Rope1_Seg06 0.000000 0.000000 0.000000 0.000000 0.000000 0.000000 10.000000 
Rope1_Seg07 0.000000 0.000000 0.000000 0.000000 0.000000 0.000000 10.000000 
Rope1_Seg09 0.000000 0.000000 0.000000 0.000000 0.000000 0.000000 10.000000 
L_mid_hand01 0.000000 0.000000 0.000000 0.000000 0.000000 0.000000 10.000000 
L_mid_hand02 0.000000 0.000000 0.000000 0.000000 0.000000 0.000000 10.000000 
L_mid_hand03 0.000000 0.000000 0.000000 0.000000 0.000000 0.000000 10.000000 
null_rope02_connect 0.000000 0.000000 0.000000 0.000000 0.000000 0.000000 10.000000 
Rope2_Seg01 0.000000 0.000000 0.000000 0.000000 0.000000 0.000000 10.000000 
Rope2_Seg02 0.000000 0.000000 0.000000 0.000000 0.000000 0.000000 10.000000 
Rope2_Seg03 0.000000 0.000000 0.000000 0.000000 0.000000 0.000000 10.000000 
Rope2_Seg04 0.000000 0.000000 0.000000 0.000000 0.000000 0.000000 10.000000 
Rope2_Seg05 0.000000 0.000000 0.000000 0.000000 0.000000 0.000000 10.000000 
Rope2_Seg06 0.000000 0.000000 0.000000 0.000000 0.000000 0.000000 10.000000 
Rope2_Seg07 0.000000 0.000000 0.000000 0.000000 0.000000 0.000000 10.000000 
Rope2_Seg09 0.000000 0.000000 0.000000 0.000000 0.000000 0.000000 10.000000 
R_mid_hand01 0.000000 0.000000 0.000000 0.000000 0.000000 0.000000 10.000000 
R_mid_hand02 0.000000 0.000000 0.000000 0.000000 0.000000 0.000000 10.000000 
R_mid_hand03 0.000000 0.000000 0.000000 0.000000 0.000000 0.000000 10.000000 
spine02 0.000000 0.000000 0.000000 0.000000 0.000000 0.000000 10.000000 
spine03 0.000000 0.000000 0.000000 0.000000 0.000000 0.000000 10.000000 
pelvis 0.000000 0.000000 0.000000 0.000000 0.000000 0.000000 10.000000 
null_rope03_connect 0.000000 0.000000 0.000000 0.000000 0.000000 0.000000 10.000000 
null_rope04_connect 0.000000 0.000000 0.000000 0.000000 0.000000 0.000000 10.000000 
Rope3_Seg01 0.000000 0.000000 0.000000 0.000000 0.000000 0.000000 10.000000 
Rope3_Seg02 0.000000 0.000000 0.000000 0.000000 0.000000 0.000000 10.000000 
Rope3_Seg03 0.000000 0.000000 0.000000 0.000000 0.000000 0.000000 10.000000 
Rope3_Seg04 0.000000 0.000000 0.000000 0.000000 0.000000 0.000000 10.000000 
Rope3_Seg05 0.000000 0.000000 0.000000 0.000000 0.000000 0.000000 10.000000 
Rope3_Seg06 0.000000 0.000000 0.000000 0.000000 0.000000 0.000000 10.000000 
Rope3_Seg07 0.000000 0.000000 0.000000 0.000000 0.000000 0.000000 10.000000 
Rope3_Seg08 0.000000 0.000000 0.000000 0.000000 0.000000 0.000000 10.000000 
Rope3_Seg09 0.000000 0.000000 0.000000 0.000000 0.000000 0.000000 10.000000 
R_rear_hand01 0.000000 0.000000 0.000000 0.000000 0.000000 0.000000 10.000000 
R_rear_hand02 0.000000 0.000000 0.000000 0.000000 0.000000 0.000000 10.000000 
R_rear_hand03 0.000000 0.000000 0.000000 0.000000 0.000000 0.000000 10.000000 
Rope4_Seg01 0.000000 0.000000 0.000000 0.000000 0.000000 0.000000 10.000000 
Rope4_Seg02 0.000000 0.000000 0.000000 0.000000 0.000000 0.000000 10.000000 
Rope4_Seg03 0.000000 0.000000 0.000000 0.000000 0.000000 0.000000 10.000000 
Rope4_Seg04 0.000000 0.000000 0.000000 0.000000 0.000000 0.000000 10.000000 
Rope4_Seg05 0.000000 0.000000 0.000000 0.000000 0.000000 0.000000 10.000000 
Rope4_Seg06 0.000000 0.000000 0.000000 0.000000 0.000000 0.000000 10.000000 
Rope4_Seg07 0.000000 0.000000 0.000000 0.000000 0.000000 0.000000 10.000000 
Rope4_Seg08 0.000000 0.000000 0.000000 0.000000 0.000000 0.000000 10.000000 
Rope4_Seg09 0.000000 0.000000 0.000000 0.000000 0.000000 0.000000 10.000000 
L_rear_hand01 0.000000 0.000000 0.000000 0.000000 0.000000 0.000000 10.000000 
L_rear_hand02 0.000000 0.000000 0.000000 0.000000 0.000000 0.000000 10.000000 
L_rear_hand03 0.000000 0.000000 0.000000 0.000000 0.000000 0.000000 10.000000 
#Beginning of Data. Separated by tabs
#Fr	Tx	Ty	Tz	Rx	Ry	Rz	SF
[MASTER]
21 3673.268066 5152.650879 1897.373535 0.001660 0.001660 0.001660 6606.265137
22 3856.569092 5399.375000 1788.099487 0.001660 0.001660 0.001660 6871.948730
[root]
21 -35.659180 -56.917725 1502.538696 -108.933632 -23.428268 -97.342186 1504.039063
22 -34.132690 -58.255001 1502.471069 -107.072067 -24.334995 -96.016235 1503.987427
[chest]
21 -84.512650 -34.090519 0.000000 -15.302098 20.858595 151.029648 91.129311
22 -84.512650 -34.090519 0.000000 -14.718531 21.118259 152.441422 91.129311
[L_mid_tent01]
21 27.298222 22.179108 -249.919052 3.753688 28.627237 81.717995 252.381943
22 27.298178 22.179098 -249.919083 3.935779 29.711901 81.885468 252.381958
[R_mid_tent01]
21 23.228794 24.509907 226.238495 158.339157 -44.937210 90.325989 228.744751
22 23.228794 24.509907 226.238495 157.332748 -45.792637 91.967186 228.744751
[spine01]
21 -0.361383 -0.195265 0.000000 0.002037 0.001166 30.407234 0.410763
22 -0.361383 -0.195265 0.000000 0.002033 0.001173 30.025759 0.410763
[Bip01_Neck]
21 165.484543 71.581718 0.000119 176.643677 -1.657967 43.431911 180.302734
22 165.484543 71.581718 0.000119 176.643677 -1.657967 43.431911 180.302734
[L_humerus]
21 -13.983130 -135.272980 -120.471481 -6.901824 64.417351 82.966461 181.680161
22 -13.983130 -135.272980 -120.471481 -6.833231 64.660011 83.043900 181.680161
[R_humerus]
21 -13.983309 -135.273102 125.287651 25.844164 -65.242516 69.872437 184.909012
22 -13.983309 -135.273102 125.287651 25.927046 -65.476273 69.786179 184.909012
[weapon_bone]
21 235.964890 -300.705902 0.000000 0.000000 -89.951546 -128.212341 382.234833
22 235.964890 -300.705902 0.000000 0.000000 -89.951546 -128.212341 382.234833
[Bip01_Head]
21 213.416443 185.791931 10.791626 4.440424 -0.598381 -43.901402 283.163696
22 213.380737 185.891418 9.507445 4.439822 -0.385180 -43.900673 283.156067
[eye_left_bone]
21 -24.626970 125.451866 -64.772606 0.000000 -90.000000 -99.840431 143.318359
22 -24.626970 125.451866 -64.772606 0.000000 -90.000000 -99.840431 143.318359
[eye_right_bone]
21 -24.626970 125.451866 64.327362 0.000000 -89.965736 80.156380 143.117676
22 -24.626970 125.451866 64.327362 0.000000 -89.965736 80.156380 143.117676
[L_forearm]
21 322.776093 0.000000 -0.000119 0.000426 -0.002308 -110.933777 322.776093
22 322.776093 0.000000 -0.000119 0.000425 -0.002308 -110.845139 322.776093
[L_front_hand]
21 241.149185 -0.042021 -3.300071 -178.667953 -1.835447 -27.422350 241.171753
22 241.149185 -0.042021 -3.300071 -178.667953 -1.835447 -27.422342 241.171753
[L_weapon_bone]
21 156.183838 0.000000 0.000000 0.000014 0.000007 0.000001 156.183838
22 156.183838 0.000000 0.000000 0.000014 0.000007 0.000001 156.183838
[L_front_hand01_01]
21 86.095154 20.947098 -0.655860 -0.306535 -0.513312 68.646957 88.609184
22 86.095154 20.947098 -0.655860 -0.314053 -0.508434 69.417061 88.609184
[L_front_hand02_01]
21 86.935165 -11.437475 24.513514 145.004028 -56.473930 -50.323566 91.046425
22 86.935165 -11.437475 24.513514 145.968994 -56.908298 -51.478970 91.046425
[L_front_hand03_01]
21 86.637497 -14.123976 -20.424902 -145.151382 54.687630 -52.198425 90.126129
22 86.637497 -14.123976 -20.424902 -146.056091 55.123100 -53.303513 90.126129
[L_front_hand01_02]
21 71.020905 -0.000179 0.000030 0.000317 -0.002326 -105.540344 71.020905
22 71.020905 -0.000179 0.000030 0.000318 -0.002326 -105.579170 71.020905
[L_front_hand02_02]
21 71.020927 -0.000119 0.000060 0.000317 -0.002326 -105.540344 71.020927
22 71.020927 -0.000119 0.000060 0.000318 -0.002326 -105.579170 71.020927
[L_front_hand03_02]
21 71.020905 -0.000060 0.000060 0.000317 -0.002326 -105.540344 71.020905
22 71.020905 -0.000060 0.000060 0.000318 -0.002326 -105.579170 71.020905
[R_forearm]
21 322.776428 -0.000060 0.000030 0.201222 0.067830 -109.581192 322.776428
22 322.776428 -0.000060 0.000030 0.201263 0.067706 -109.510582 322.776428
[R_front_hand]
21 238.847015 -0.006795 2.210259 -2.635298 -10.645461 -26.312506 238.857239
22 238.847015 -0.006795 2.210259 -2.635298 -10.645461 -26.312506 238.857239
[R_weapon_bone]
21 155.664093 0.002503 -0.000030 0.003487 0.001180 -90.988930 155.664078
22 155.664093 0.002503 -0.000030 0.003487 0.001180 -90.988930 155.664078
[R_front_hand01_01]
21 87.624611 14.231146 22.918642 -144.694321 -56.325726 50.060078 91.683487
22 87.624611 14.231146 22.918642 -146.552536 -57.155418 52.280716 91.683487
[R_front_hand02_01]
21 89.356956 14.367283 -19.491137 145.240677 54.711166 52.540710 92.579636
22 89.356956 14.367283 -19.491137 146.998032 55.533031 54.685238 92.579636
[R_front_hand03_01]
21 87.286232 -22.307278 -0.143439 0.105409 -0.441003 -68.629547 90.091743
22 87.286232 -22.307278 -0.143439 0.117983 -0.440813 -70.109169 90.091743
[R_front_hand01_02]
21 71.020905 0.000060 0.000119 0.002323 -0.000334 106.381714 71.020905
22 71.020905 0.000060 0.000119 0.002323 -0.000334 106.381714 71.020905
[R_front_hand02_02]
21 71.020844 -0.000030 -0.000119 0.002323 -0.000334 106.381714 71.020836
22 71.020844 -0.000030 -0.000119 0.002323 -0.000334 106.381714 71.020836
[R_front_hand03_02]
21 71.020905 0.000000 0.000030 0.002323 -0.000334 106.381714 71.020905
22 71.020905 0.000000 0.000030 0.002323 -0.000334 106.381714 71.020905
[null_rope01_connect]
21 328.732483 0.000000 -0.000238 -141.034790 -38.324833 172.405991 328.732483
22 328.732483 0.000000 -0.000238 -140.490662 -39.772346 173.159210 328.732483
[Rope1_Seg01]
21 -0.000019 0.000019 0.000076 108.661896 -21.890947 168.225723 0.000081
22 -0.000020 0.000018 0.000080 109.064896 -18.746254 168.065308 0.000085
[Rope1_Seg02]
21 139.999863 -0.000179 0.000000 0.967555 -9.397367 -3.234438 139.999863
22 139.999863 -0.000179 0.000000 1.083082 -9.432868 -2.698303 139.999863
[Rope1_Seg03]
21 139.999924 0.000060 -0.000060 0.549182 -16.623396 -5.763887 139.999924
22 139.999924 0.000060 -0.000060 0.614576 -16.728998 -4.914081 139.999924
[Rope1_Seg04]
21 139.999924 -0.000060 -0.000119 -0.412644 -20.305613 -12.793795 139.999924
22 139.999924 -0.000060 -0.000119 -0.784047 -20.763494 -11.090376 139.999924
[Rope1_Seg05]
21 139.999832 0.000119 -0.000060 -5.832875 -28.485199 -5.422582 139.999832
22 139.999832 0.000119 -0.000060 -9.170179 -33.582558 -3.041348 139.999832
[Rope1_Seg06]
21 139.999954 0.000119 -0.000060 -19.822628 -36.331699 -1.735543 139.999954
22 139.999954 0.000119 -0.000060 -20.691246 -32.283867 -2.654498 139.999954
[Rope1_Seg07]
21 139.999985 0.000060 0.000000 -12.141404 -12.783790 -6.596431 139.999985
22 139.999985 0.000060 0.000000 -10.207565 -9.563423 -5.732802 139.999985
[Rope1_Seg09]
21 121.602913 0.000119 -0.000089 -89.793175 -1.359789 0.847147 121.602913
22 121.602913 0.000119 -0.000089 -89.793175 -1.359789 0.847147 121.602913
[L_mid_hand01]
21 103.859421 1.038730 8.195221 130.544403 -67.584549 -38.866970 104.187431
22 103.859421 1.038730 8.195221 130.544373 -67.584534 -38.866943 104.187431
[L_mid_hand02]
21 105.572853 -4.139662 -10.864139 -168.923172 43.409309 -73.498894 106.211075
22 105.572853 -4.139662 -10.864139 -168.923172 43.409309 -73.498886 106.211075
[L_mid_hand03]
21 104.641464 17.579376 -3.913581 -6.012627 17.808174 74.893669 106.179977
22 104.641464 17.579376 -3.913581 -6.012626 17.808172 74.893661 106.179977
[null_rope02_connect]
21 328.732849 0.000179 -0.000119 -120.767868 63.226536 30.120855 328.732849
22 328.732849 0.000179 -0.000119 -121.728821 59.630878 28.932375 328.732849
[Rope2_Seg01]
21 0.000057 0.000076 0.000000 -92.003731 28.364174 -24.631336 0.000095
22 0.000058 0.000072 0.000000 -95.088791 28.816828 -25.750435 0.000093
[Rope2_Seg02]
21 139.999741 -0.000060 -0.000119 -8.178765 -2.429840 4.863369 139.999756
22 139.999741 -0.000060 -0.000119 -8.615704 -3.517210 5.632604 139.999756
[Rope2_Seg03]
21 140.000107 0.000030 0.000000 -10.038394 -6.586202 9.605891 140.000107
22 140.000107 0.000030 0.000000 -10.724699 -10.804834 12.919991 140.000107
[Rope2_Seg04]
21 139.999802 0.000000 -0.000060 -17.758970 -27.819708 33.072239 139.999802
22 139.999802 0.000000 -0.000060 -23.937716 -41.456352 46.594772 139.999802
[Rope2_Seg05]
21 139.999985 -0.000060 0.000119 -10.641869 -37.965157 35.435574 139.999985
22 139.999985 -0.000060 0.000119 -1.915436 -27.608480 21.182890 139.999985
[Rope2_Seg06]
21 139.999893 -0.000030 -0.000119 1.329379 -7.968287 5.950713 139.999893
22 139.999893 -0.000030 -0.000119 2.446460 -3.180105 4.324329 139.999893
[Rope2_Seg07]
21 139.999893 0.000060 -0.000060 0.982288 -4.663889 3.278602 139.999893
22 139.999893 0.000060 -0.000060 3.131176 -2.951473 4.415980 139.999893
[Rope2_Seg09]
21 121.338966 0.000089 -0.000060 33.793236 -1.359788 -0.847141 121.338966
22 121.338966 0.000089 -0.000060 33.793236 -1.359788 -0.847141 121.338966
[R_mid_hand01]
21 104.680779 11.144459 -10.335981 -16.212063 45.237247 70.462852 105.778534
22 104.680779 11.144459 -10.335981 -16.212059 45.237240 70.462852 105.778534
[R_mid_hand02]
21 104.070427 2.443552 8.231699 49.067368 -67.749771 39.286453 104.424065
22 104.070427 2.443552 8.231699 49.067368 -67.749771 39.286453 104.424065
[R_mid_hand03]
21 106.028137 -11.221827 -5.996406 -177.101105 15.551026 -76.585571 106.788818
22 106.028137 -11.221827 -5.996406 -177.101105 15.551024 -76.585571 106.788818
[spine02]
21 129.756927 0.001550 0.000119 0.510413 -4.027509 -15.090856 129.756927
22 129.756927 0.001550 0.000119 0.501516 -4.028656 -14.977408 129.756927
[spine03]
21 78.613998 0.081711 -4.898843 1.988532 3.786154 17.836634 78.766525
22 78.613991 0.081707 -4.898836 1.982446 3.789320 17.757610 78.766518
[pelvis]
21 169.435242 0.051022 0.000000 -0.069668 -0.177997 16.840597 169.435257
22 169.435242 0.051022 0.000000 -0.069455 -0.178080 16.703104 169.435257
[null_rope03_connect]
21 -1.257226 -2.466202 137.391083 -138.218094 -68.238060 -159.327179 137.418976
22 -1.257226 -2.466202 137.391083 -138.502533 -70.801765 -157.378586 137.418976
[null_rope04_connect]
21 -1.259640 -2.480268 -137.844437 -138.218094 -68.238060 -159.327179 137.872513
22 -1.259640 -2.480268 -137.844437 -138.502533 -70.801765 -157.378586 137.872513
[Rope3_Seg01]
21 -0.000010 -0.000343 -0.000153 -143.279678 -21.300730 -40.151840 0.000376
22 -0.000009 -0.000357 -0.000153 -152.168045 -27.512217 -33.139046 0.000388
[Rope3_Seg02]
21 139.999924 -0.000119 0.000060 -1.652901 7.101810 5.471509 139.999924
22 139.999924 -0.000119 0.000060 -0.946381 5.026407 5.155102 139.999924
[Rope3_Seg03]
21 139.999924 -0.000119 0.000119 -2.117763 19.023756 10.677791 139.999924
22 139.999924 -0.000119 0.000119 -2.096789 12.281286 9.189489 139.999924
[Rope3_Seg04]
21 139.999924 0.000119 0.000000 0.450757 0.086930 4.746306 139.999924
22 139.999924 0.000119 0.000000 -0.453831 11.573227 9.561064 139.999924
[Rope3_Seg05]
21 139.999924 -0.000238 0.000060 71.967751 -68.950752 -41.519974 139.999924
22 139.999924 -0.000238 0.000060 43.058716 -52.168739 -28.466368 139.999924
[Rope3_Seg06]
21 139.999893 -0.000119 -0.000060 20.692263 -17.721327 10.455609 139.999893
22 139.999893 -0.000119 -0.000060 47.784023 -37.910110 6.269608 139.999893
[Rope3_Seg07]
21 139.999771 0.000060 -0.000119 6.342015 -4.060793 5.290208 139.999771
22 139.999771 0.000060 -0.000119 8.951525 -4.556202 7.709230 139.999771
[Rope3_Seg08]
21 139.999985 -0.000060 0.000000 3.032426 -1.597864 2.656216 139.999985
22 139.999985 -0.000060 0.000000 3.668134 -1.432121 3.648102 139.999985
[Rope3_Seg09]
21 90.185997 -0.000179 -0.000060 89.793228 -1.359877 -0.847183 90.185997
22 90.185997 -0.000179 -0.000060 89.793228 -1.359877 -0.847183 90.185997
[R_rear_hand01]
21 103.366196 -6.073594 -10.757982 -177.714203 24.565960 -73.910950 104.101845
22 103.366196 -6.073594 -10.757982 -177.714203 24.565960 -73.910950 104.101845
[R_rear_hand02]
21 100.509819 12.039542 -7.992327 -12.874829 36.868488 72.167213 101.543350
22 100.509819 12.039542 -7.992327 -12.874829 36.868488 72.167213 101.543350
[R_rear_hand03]
21 101.539970 5.215704 5.435467 71.484581 -71.816628 21.513813 101.819031
22 101.539970 5.215704 5.435467 71.484581 -71.816628 21.513813 101.819031
[Rope4_Seg01]
21 0.000000 -0.000629 -0.000229 87.051353 -40.133469 -151.196808 0.000670
22 0.000000 -0.000659 -0.000233 85.176376 -39.722595 -149.629333 0.000699
[Rope4_Seg02]
21 139.999985 0.000060 0.000119 -4.431965 -2.548591 -5.332555 139.999985
22 139.999985 0.000060 0.000119 -1.018991 -3.888726 -2.888758 139.999985
[Rope4_Seg03]
21 139.999924 0.000000 -0.000238 -22.784464 3.414191 -16.973103 139.999924
22 139.999924 0.000000 -0.000238 -6.722482 -4.005922 -7.030168 139.999924
[Rope4_Seg04]
21 139.999985 0.000000 0.000119 -91.165573 -29.068623 -85.766708 139.999985
22 139.999985 0.000000 0.000119 -124.142914 -54.363792 -70.079941 139.999985
[Rope4_Seg05]
21 139.999802 -0.000060 -0.000119 -8.793797 22.662590 -8.718164 139.999802
22 139.999802 -0.000060 -0.000119 -3.001004 28.334469 4.383910 139.999802
[Rope4_Seg06]
21 139.999924 0.000000 0.000060 -0.329928 3.963149 -0.286879 139.999924
22 139.999924 0.000000 0.000060 0.004386 3.855217 1.110289 139.999924
[Rope4_Seg07]
21 139.999802 0.000000 0.000000 -0.040410 2.078917 -0.137578 139.999802
22 139.999802 0.000000 0.000000 0.091032 2.014225 0.581999 139.999802
[Rope4_Seg08]
21 139.999924 0.000000 0.000119 -1.512258 0.871401 -0.059304 139.999924
22 139.999924 0.000000 0.000119 -1.474455 1.054110 0.299714 139.999924
[Rope4_Seg09]
21 90.185791 0.000060 0.000060 -135.617828 2.228885 0.850567 90.185791
22 90.185791 0.000060 0.000060 -135.617828 2.228885 0.850567 90.185791
[L_rear_hand01]
21 101.696655 -8.392275 -7.654577 -12.874829 -36.868488 107.832764 102.329041
22 101.696655 -8.392275 -7.654577 -12.874827 -36.868492 107.832764 102.329041
[L_rear_hand02]
21 102.726799 -1.568258 5.773216 71.484581 71.816628 158.486160 102.900848
22 102.726799 -1.568258 5.773216 71.484581 71.816628 158.486160 102.900848
[L_rear_hand03]
21 104.552910 9.721220 -10.420293 -177.714203 -24.565960 -106.089035 105.519653
22 104.552910 9.721220 -10.420293 -177.714203 -24.565960 -106.089035 105.519653
